#!OML:ASF H:\Not Pregnant\Project 1\Capture day 1\Session 1\non-pregnant.ASF
:FULLY-SPECIFIED
:DEGREES
2094
root 6.65624 6.28679 17.988 54.7072 4.94193 -31.0437
lowerback 27.4224 10.3496 -14.4123
upperback 8.07943 9.10872 2.17733
thorax -7.68408 4.19991 6.80162
lowerneck 18.1038 -9.0779 -33.7581
upperneck 9.02376 -20.1005 37.9525
head 8.08241 -12.3973 20.8337
rclavicle -6.36111e-014 -2.09718e-014
rhumerus 35.6919 26.6439 -99.5229
rradius 100.932
rwrist 15.6803
rhand -30.8626 -13.8999
rfingers 7.12502
rthumb -4.15047 -43.8392
lclavicle -6.36111e-014 -2.09718e-014
lhumerus 53.0255 -4.07053 41.9
lradius 97.0951
lwrist -10.2257
lhand -18.9325 1.76713
lfingers 7.12502
lthumb 7.37029 31.6188
rfemur -156.842 26.1399 55.8584
rtibia 123.789
rfoot -1.15103 14.9635
rtoes 37.157
lfemur 15.7321 3.8296 -2.62328
ltibia 16.6986
lfoot 62.9305 2.20665
ltoes 35.5593
2095
root 6.6421 6.30096 17.9766 54.5937 5.10437 -30.7738
lowerback 27.498 10.1448 -14.3888
upperback 8.02003 8.83982 2.06427
thorax -7.69904 4.08192 6.76575
lowerneck 17.9291 -9.23754 -33.4923
upperneck 8.86979 -20.2447 38.0585
head 8.11624 -12.4565 20.7634
rclavicle 6.67916e-014 -3.4191e-014
rhumerus 34.7633 26.7439 -100.177
rradius 100.614
rwrist 16.0153
rhand -31.9794 -13.2045
rfingers 7.12502
rthumb -5.22881 -43.12
lclavicle 6.67916e-014 -3.4191e-014
lhumerus 52.9205 -3.93787 41.5512
lradius 97.032
lwrist -9.87534
lhand -19.101 1.78968
lfingers 7.12502
lthumb 7.20768 31.6469
rfemur -156.85 25.9438 55.8601
rtibia 123.742
rfoot -1.20884 14.8845
rtoes 36.8366
lfemur 15.5384 3.56806 -2.54355
ltibia 17.0144
lfoot 62.8917 2.13691
ltoes 35.5345
2096
root 6.62736 6.31593 17.9655 54.4566 5.26836 -30.5027
lowerback 27.6008 9.94792 -14.3719
upperback 7.9626 8.57471 1.95806
thorax -7.72649 3.96577 6.73572
lowerneck 17.7556 -9.38421 -33.2271
upperneck 8.70895 -20.3729 38.1807
head 8.14325 -12.5095 20.7082
rclavicle -6.36111e-015 3.83654e-014
rhumerus 33.7708 26.7537 -100.898
rradius 100.159
rwrist 17.0922
rhand -32.8496 -12.4541
rfingers 7.12502
rthumb -6.06897 -42.3472
lclavicle -6.36111e-015 3.83654e-014
lhumerus 52.806 -3.80769 41.1975
lradius 96.9639
lwrist -9.54329
lhand -19.3085 1.79527
lfingers 7.12502
lthumb 7.00738 31.6593
rfemur -156.829 25.7343 55.8788
rtibia 123.697
rfoot -1.2688 14.8107
rtoes 36.5075
lfemur 15.3826 3.31888 -2.45028
ltibia 17.299
lfoot 62.8705 2.05862
ltoes 35.4973
2097
root 6.61197 6.33202 17.9557 54.3075 5.43291 -30.2389
lowerback 27.7116 9.76079 -14.3603
upperback 7.90711 8.31983 1.86118
thorax -7.76016 3.85445 6.71322
lowerneck 17.5347 -9.49308 -33.0428
upperneck 8.58744 -20.4809 38.4354
head 8.23052 -12.5714 20.7908
rclavicle -5.40694e-014 5.26779e-014
rhumerus 32.7264 26.6791 -101.663
rradius 99.5718
rwrist 18.8798
rhand -33.5705 -11.7408
rfingers 7.12502
rthumb -6.76499 -41.6127
lclavicle -5.40694e-014 5.26779e-014
lhumerus 52.6694 -3.69739 40.8518
lradius 96.8989
lwrist -9.2598
lhand -19.546 1.80129
lfingers 7.12502
lthumb 6.77813 31.6728
rfemur -156.775 25.5244 55.9133
rtibia 123.653
rfoot -1.34186 14.7424
rtoes 36.1746
lfemur 15.2541 3.1116 -2.33017
ltibia 17.5526
lfoot 62.8805 1.9561
ltoes 35.4482
2098
root 6.59604 6.34854 17.9452 54.1509 5.60475 -29.9713
lowerback 27.8398 9.56816 -14.3384
upperback 7.85022 8.0577 1.76264
thorax -7.80044 3.74 6.68478
lowerneck 17.4136 -9.58384 -32.8207
upperneck 8.29785 -20.5533 38.7212
head 8.22291 -12.6215 20.8761
rclavicle -2.54444e-014 -5.96354e-015
rhumerus 31.6522 26.5434 -102.469
rradius 98.8551
rwrist 21.313
rhand -34.2348 -11.0903
rfingers 7.12502
rthumb -7.40621 -40.9406
lclavicle -2.54444e-014 -5.96354e-015
lhumerus 52.518 -3.58273 40.4874
lradius 96.8204
lwrist -9.02158
lhand -19.792 1.82441
lfingers 7.12502
lthumb 6.5406 31.7034
rfemur -156.716 25.3081 55.9557
rtibia 123.605
rfoot -1.41992 14.6702
rtoes 35.8193
lfemur 15.1387 2.89491 -2.20483
ltibia 17.7869
lfoot 62.8877 1.87783
ltoes 35.4071
2099
root 6.57931 6.36574 17.9344 53.9975 5.77768 -29.7017
lowerback 27.9726 9.37027 -14.315
upperback 7.79217 7.78832 1.66018
thorax -7.84237 3.62239 6.65371
lowerneck 17.3542 -9.64084 -32.5977
upperneck 7.86886 -20.5781 39.0937
head 8.15297 -12.6616 21.026
rclavicle 1.27222e-014 5.64548e-014
rhumerus 30.5533 26.3599 -103.312
rradius 98.0744
rwrist 24.2381
rhand -34.8476 -10.6036
rfingers 7.12502
rthumb -7.99771 -40.4323
lclavicle 1.27222e-014 5.64548e-014
lhumerus 52.3497 -3.46237 40.1013
lradius 96.7262
lwrist -8.84822
lhand -20.0383 1.86103
lfingers 7.12502
lthumb 6.3028 31.7473
rfemur -156.653 25.0983 55.9988
rtibia 123.552
rfoot -1.5121 14.5904
rtoes 35.4248
lfemur 15.0188 2.68508 -2.07406
ltibia 18.0171
lfoot 62.8937 1.80851
ltoes 35.3464
2100
root 6.5617 6.38362 17.9234 53.8495 5.95673 -29.432
lowerback 28.106 9.16192 -14.2846
upperback 7.73388 7.50748 1.55352
thorax -7.88212 3.4995 6.61919
lowerneck 17.3611 -9.70694 -32.3189
upperneck 7.33059 -20.5896 39.4189
head 8.00439 -12.6902 21.1113
rclavicle 3.18055e-015 4.14466e-014
rhumerus 29.4682 26.1536 -104.167
rradius 97.2218
rwrist 27.4355
rhand -35.4158 -10.2776
rfingers 7.12502
rthumb -8.54605 -40.0846
lclavicle 3.18055e-015 4.14466e-014
lhumerus 52.1643 -3.32645 39.6847
lradius 96.6102
lwrist -8.74426
lhand -20.2717 1.8904
lfingers 7.12502
lthumb 6.07747 31.7832
rfemur -156.59 24.8962 56.0419
rtibia 123.493
rfoot -1.62558 14.5009
rtoes 34.9941
lfemur 14.8835 2.49311 -1.92661
ltibia 18.2591
lfoot 62.9035 1.73468
ltoes 35.2836
2101
root 6.54323 6.40205 17.9117 53.7134 6.14121 -29.1643
lowerback 28.2336 8.94142 -14.2479
upperback 7.67464 7.21395 1.44103
thorax -7.91756 3.3708 6.58073
lowerneck 17.3764 -9.81582 -31.9631
upperneck 6.78268 -20.6224 39.5971
head 7.81202 -12.7078 21.0459
rclavicle -7.31528e-014 9.22361e-014
rhumerus 28.4085 25.9419 -105.029
rradius 96.3342
rwrist 30.7116
rhand -35.9126 -10.0775
rfingers 7.12502
rthumb -9.02543 -39.8644
lclavicle -7.31528e-014 9.22361e-014
lhumerus 51.9608 -3.17318 39.2347
lradius 96.4714
lwrist -8.7139
lhand -20.5113 1.87429
lfingers 7.12502
lthumb 5.84615 31.7736
rfemur -156.531 24.7073 56.083
rtibia 123.425
rfoot -1.75581 14.4004
rtoes 34.532
lfemur 14.7263 2.30378 -1.77088
ltibia 18.514
lfoot 62.9022 1.67954
ltoes 35.2164
2102
root 6.5237 6.42117 17.8996 53.5891 6.3121 -28.8878
lowerback 28.3558 8.71597 -14.2282
upperback 7.61407 6.90958 1.31926
thorax -7.95093 3.23734 6.54536
lowerneck 17.3868 -9.99031 -31.5285
upperneck 6.29843 -20.711 39.5615
head 7.60472 -12.7245 20.7823
rclavicle 2.8625e-014 -2.6339e-015
rhumerus 27.3929 25.7365 -105.884
rradius 95.4059
rwrist 33.9044
rhand -36.2939 -9.97607
rfingers 7.12502
rthumb -9.39343 -39.7468
lclavicle 2.8625e-014 -2.6339e-015
lhumerus 51.7386 -3.0078 38.7538
lradius 96.3136
lwrist -8.75444
lhand -20.7566 1.78567
lfingers 7.12502
lthumb 5.60937 31.6914
rfemur -156.477 24.5327 56.1025
rtibia 123.35
rfoot -1.8985 14.2884
rtoes 34.0304
lfemur 14.5504 2.12297 -1.62898
ltibia 18.7792
lfoot 62.8918 1.62602
ltoes 35.1777
2103
root 6.50333 6.44053 17.8868 53.4714 6.49373 -28.6264
lowerback 28.4706 8.48301 -14.1919
upperback 7.55295 6.60192 1.19748
thorax -7.98137 3.10232 6.50346
lowerneck 16.8782 -10.1736 -31.3091
upperneck 6.52445 -20.904 39.6138
head 7.85378 -12.7834 20.6904
rclavicle -2.54444e-014 6.69407e-014
rhumerus 26.4324 25.5472 -106.716
rradius 94.4469
rwrist 36.8355
rhand -36.5179 -9.90854
rfingers 7.12502
rthumb -9.60954 -39.6694
lclavicle -2.54444e-014 6.69407e-014
lhumerus 51.4953 -2.83818 38.2507
lradius 96.1402
lwrist -8.86593
lhand -21.0034 1.61265
lfingers 7.12502
lthumb 5.37102 31.5246
rfemur -156.418 24.3744 56.1296
rtibia 123.267
rfoot -2.05205 14.1666
rtoes 33.5134
lfemur 14.3647 1.95263 -1.46329
ltibia 19.0511
lfoot 62.872 1.58016
ltoes 35.1801
